/* XPM */
static char *result[] = {
/* columns rows colors chars-per-pixel */
"32 32 2 1 ",
"  c #4B8826",
". c #8FDE5D",
/* pixels */
"................................",
".................... ...........",
".. . ........ . ......... . ....",
"... .......... ........... .....",
"....... . ......... . ..........",
"........ ........... ...........",
"................................",
".......................... . ...",
". . ... .... . ............ ....",
".. .......... ..................",
"................... . ..........",
"...... . ........... ...........",
"....... ................. .. . .",
"............................. ..",
"............ . .................",
"............. ...... . .........",
".. . ................ .... . ...",
"... ....................... ....",
"................................",
".......... . ................. .",
"........... ..... ..............",
"...................... . .......",
".. . .. ............... ........",
"... ........... . ..............",
"................ ........... . .",
"....... . ................... ..",
"........ ................. .....",
"... ............... . ..........",
"............ . ..... ...........",
".. . ........ ........... . ....",
"... ...................... .....",
"................................"
};
