/* XPM */
static char *result[] = {
/* columns rows colors chars-per-pixel */
"32 32 9 1 ",
"  c gray20",
". c #5B5B66",
"X c #4B8826",
"o c #8FDE5D",
"O c #747481",
"+ c #7E7E8F",
"@ c #9F9FAA",
"# c #C2C2D1",
"$ c #FFFFEB",
/* pixels */
"ooooooooooooXooooooooooooooooooo",
"ooooXoXooooooooooooooooXooooXoXo",
"oooooXoooo            oooooooXoo",
"oooooooo   #######@@## ooooooooo",
"oXoooo  ## #######@@###   ooooXo",
"Xoooo ##### ##@@###@@#@#$$  oooo",
"ooooo ##### ##@@###@@#@##$## ooo",
"oo   #$$#@  @@OO@###@@@###@@O oo",
"oo ##$$$#@ OO       @OO@@@@OOO o",
"o ##$$$#@  O          OO@@@OOO o",
"o ##$$#@O              OO@@OOO o",
"o #$$#@O                OOOOOO o",
" #####O                  OOOOO o",
" ####@O                   ..OOO ",
" ###@O                     ..OO ",
" ###O                       .OO ",
" ###O                       .OO ",
" ##@O                       .OO ",
" ##@                        .OO ",
" ##@      ..++##++++...     .OO ",
" ##@      .++####++++..     .OO ",
" ##@      .O++##++++...      .O ",
" ##@                         .O ",
" ##@     ..O+##$##+++O..     .O ",
" ##@     .+++##$$#+++OO.     .. ",
" ##@     .++##$$$##+++O.     .. ",
" ##@     ..++##$###++O..     .. ",
" ##@                         .. ",
" ##@   .O+++##$$$####++O..   .. ",
" ##@   .O+###$$$$$$##+++O.   .. ",
"o #@   ..+##$$$$$$$###++..    . ",
"oo      .++##$$$$$###++O.      o"
};
