/* XPM */
static char *result[] = {
/* columns rows colors chars-per-pixel */
"32 32 13 1 ",
"  c #272736",
". c #323E4F",
"X c #473B78",
"o c #88342E",
"O c #C4483F",
"+ c #EB564B",
"@ c #F9796F",
"# c #4B8826",
"$ c #8FDE5D",
"% c #4B5BAB",
"& c #82C0FF",
"* c gray96",
"= c white",
/* pixels */
"XXX%%%&&XX&XX%%XX%%%XX&&%%%XXXXX",
"XXX&$#$$$$$$$$$#$#$$$$$$$$$%%XXX",
"XX%%#$$$$$$$$$$$#$$$$#$$$$$$&%XX",
"X%&$$$$$$$$$$$$$$$$$$$$$$$$$$&%X",
"&%$$$$$$$#$$$$$$$$$$$$$$$#$$$$%%",
"&$$$$$$$$$$$$#$$$$$$$$$$$$$$$$$&",
"&$$$$$$$$$$$$$$$$#$#$$$$$$$$$#$X",
"%$$$$#$#$$$$$$$$$$#$$$$$$$$$$$#%",
"X$$$$$#$$$$$$$$..$$$$$$$$$$$$$$%",
"X$$$$$$$$$$$$$.OO.$$$$$$$$$$$$$%",
"X#$$$$$$$$$$$$.OO.$$$$$$#$#$$$$X",
"X$$$$$$$$$$#$$.OO.$$$$$$$#$$$$$X",
"&$$$$$$$$$$$$$.+O.$$#$$$$$$$$$$%",
"%$$$$#$#$$$$$.++OO.$$$$$$$$$$$$&",
"%$$$$$#$$$$$.++++O+.$$$$$$$$$$$&",
"X$$$$$$$$...@@@+++++...$$$$$$$$%",
"%$$$$$$$.@@@+++++++O+++.$$$$#$#X",
"X$$$$$$.@@@++++++++OOO++.$$$$#$X",
"X#$#$$.@@@++++++++++OOO++.$$$$$%",
"%$#$$.+@@++++++++++++OOO++.$$$$%",
"&$$$$.+@++++=++++++=++OO++.$$$$&",
"&$$$$.+++++=*=++++=*=+OO++.$$$$&",
"&$$$$.+O++=* *=++=* *=OO++.$#$$%",
"X$$$$.+OO++=*=++++=*=OOOO+.$$$$X",
"X$$#$.+OOOo+=++++++=+oOOO+.$$$$&",
"%$$$$.++OOOoo++++++oo+OO++.$$#$&",
"%&$$$$.++OO++oooooo++++++.$$$$#%",
"X%&$$$$..++++++++++++++..$$$$$%%",
"XX&$#$$$$..............$$$$$$$&X",
"XX%#$$$$$$$$$#$#$$$$$$$$#$#$$&&X",
"XX%&$$$$$$$$$$#$$$$$$$$$$#$$%%XX",
"XXX%&&%XXX&XX%%%XX&&%%X%X&&%%XXX"
};
