/* XPM */
static char *result[] = {
/* columns rows colors chars-per-pixel */
"32 32 12 1 ",
"  c gray20",
". c #473B78",
"X c #5B5B66",
"o c #4B8826",
"O c #8FDE5D",
"+ c #747481",
"@ c #7E7E8F",
"# c #4B5BAB",
"$ c #9F9FAA",
"% c #82C0FF",
"& c #C2C2D1",
"* c #FFFFEB",
/* pixels */
"..#......#...#%%#.........##....",
"..#OoOoOOOOOOOOOOOOOOOOoOOOO%...",
".%OOOoOOOO            OOOOOOO%..",
".#OOOOOO   &&&&&&&$$&& OOOOOOO#%",
"#oOOOO  && &&&&&&&$$&&&   OOOOo.",
".OOOO &&&&& &&$$&&&$$&$&**  OOO.",
".OOOO &&&&& &&$$&&&$$&$&&*&& OO.",
"%O   &**&$  $$++$&&&$$$&&&$$+ O%",
"%O &&***&$ ++       $++$$$$+++ #",
"# &&***&$  +          ++$$$+++ .",
". &&**&$+              ++$$+++ #",
". &**&$+                ++++++ %",
" &&&&&+                  +++++ .",
" &&&&$+                   XX+++ ",
" &&&$+                     XX++ ",
" &&&+                       X++ ",
" &&&+                       X++ ",
" &&$+                       X++ ",
" &&$                        X++ ",
" &&$      XX@@&&@@@@XXX     X++ ",
" &&$      X@@&&&&@@@@XX     X++ ",
" &&$      X+@@&&@@@@XXX      X+ ",
" &&$                         X+ ",
" &&$     XX+@&&*&&@@@+XX     X+ ",
" &&$     X@@@&&**&@@@++X     XX ",
" &&$     X@@&&***&&@@@+X     XX ",
" &&$     XX@@&&*&&&@@+XX     XX ",
" &&$                         XX ",
" &&$   X+@@@&&***&&&&@@+XX   XX ",
" &&$   X+@&&&******&&@@@+X   XX ",
". &$   XX@&&*******&&&@@XX    X ",
"#.      X@@&&*****&&&@@+X      #"
};
