/* XPM */
static char *result[] = {
/* columns rows colors chars-per-pixel */
"32 32 6 1 ",
"  c #322947",
". c #473B78",
"X c #4B8826",
"o c #8FDE5D",
"O c #4B5BAB",
"+ c #82C0FF",
/* pixels */
".. ..O.O..OOOO.....OO....OO.....",
". ..+Oooooooooooooo.O+++OO.. . .",
"...+XooooooooXoXoooooooooXo..  .",
"..OXooooooooooXoooooooooooXo....",
".OoooooXoXoooooooooXoXoooooo.OO+",
"O+ooooooXoooooooooooXooooooooo.O",
".ooooooooooooooooooooooooooooo..",
".oooooooooooooooooooooooooXoXoo.",
".XoXoooXooooXoXooooooooooooXooo.",
".oXooooooooooXooooooooooooooooo.",
"OooooooooooooooooooXoXoooooooooO",
"OoooooXoXoooooooooooXoooooooooo.",
"OooooooXoooooooooooooooooXooXoX.",
"OooooooooooooooooooooooooooooXoO",
"OoooooooooooXoXooooooooooooooooO",
".ooooooooooooXooooooXoXoooooooo.",
".oXoXooooooooooooooooXooooXoXoo.",
"OooXoooooooooooooooooooooooXoooO",
".ooooooooooooooooooooooooooooooO",
"OoooooooooXoXoooooooooooooooooXO",
".ooooooooooXoooooXoooooooooooooO",
"OoooooooooooooooooooooXoXoooooo.",
".oXoXooXoooooooooooooooXooooooo.",
".ooXoooooooooooXoXooooooooooooo.",
".oooooooooooooooXoooooooooooXoX.",
".ooooooXoXoooooooooooooooooooXoO",
"OOooooooXoooooooooooooooooXoooo+",
".+oXoooooooooooooooXoXoooooooooO",
".+OoooooooooXoXoooooXoooooooooOO",
"..+OXooooooooXoooooooooooXoXoOO.",
" ..OO+ooooooooooooooooooooXoo. .",
"  ...O.....OOOO....O..OOOO.O... "
};
