/* XPM */
static char *result[] = {
/* columns rows colors chars-per-pixel */
"32 32 10 1 ",
"  c #473B78",
". c #5B5B66",
"X c #4B8826",
"o c #EDED1C",
"O c #8FDE5D",
"+ c #FFFF4F",
"@ c #4B5BAB",
"# c #66FFE3",
"$ c #83A9D0",
"% c #82C0FF",
/* pixels */
"    @@@  @@%%%@@@%   @  @  @    ",
"   @%OOOOOOOOOXOOOOOOOOOOOO%%   ",
"   %OXOOOOOOOOOOOOOOOOOOOOOO@@  ",
"  @OXOOOOOOOOOOOOOOOOOOOOOOOO%@ ",
" @OOOOOOOXOOOOOOOOOOOOOOOOOOOO%@",
"@OOOOOOOOOOOOOOOOXOXO+++++.OOOO@",
"%OOOOOOOOOOOOOOOOOXO++oooo.OOOO%",
" OOOOXOXOOOOOOOOOOO++o%%#oo.OOO@",
" OOOOOXOOOOOOOOOOOO+o%##%$o.OOO ",
" OXOOOOOOOOOOOOOOOO+o#%%#%o.OOO ",
" OOOOOOOOOOOOOXOOOO+o#%$%oo.OXO ",
"@OOOOOOOOOOOOOOOOO++oooooo.OOOX@",
"%OOOOOOOXOXOOOOOO++o.oooo.OOOOO@",
"%OOOOOOOOXOOOOOO+oo.OOOOOOOOOOO@",
"@OOOOOOOOOOOOOO+oo.OOOOOOOOOOOO ",
"@OOOOOOOOOOOOO+oo.OOXOXOOOOOOOO ",
" OOOOOOOOOOO++o..OOOOXOOOOOOOOO%",
" OOOXOXOOOO+oo.XOOOOOOOOOOOOOOO%",
" OOOOXOOOO++o.XOOOOOOOOOOOOOXOO ",
"%OOOOOOOO+o.oo.OOOOOOOOOOOOOOOO ",
"%OOOOOOO+o.OOoo.OOOOOOOOOOOOOOO ",
"@OXOOOO+oo.OXOo.OOOOXOXOOOOOOOO ",
" OOOOO+oo+o.OOOOOOOOOXOOOOOOOOO@",
" OOOOO+..++o.OOOOOOOOOOOOOXOOOO%",
" XOXOO+o.O++o.OOOOOOOOOOOOOOOOO ",
" OXOOOOoo.O+.OOOOOOOOOOOOOOOXOX ",
"@OOOOOXOoo.OOOOOOOXOOOOOOOOOOXO@",
"@@OOOOOOOOOOOOOOOOOOOOOOOOOOOO%@",
" %@OOOOOOOOOOOOOOOOOOOOOOOOOO%%@",
" @%@OXOOOOOXOXOOOOOOOOOXOXOO@%  ",
"  %%@OOOOOOOXOOOOOOOOOOOXOO@@   ",
"    %@  @    %    @%%@   @%%    "
};
