/* XPM */
static char *result[] = {
/* columns rows colors chars-per-pixel */
"32 32 6 1 ",
"  c #EDED1C",
". c #FFFF4F",
"X c #66FFE3",
"o c #83A9D0",
"O c #82C0FF",
"+ c None",
/* pixels */
"++++++++++++++++++++++++++++++++",
"++++++++++++++++++++++++++++++++",
"++++++++++++++++++++++++++++++++",
"++++++++++++++++++++++++++++++++",
"++++++++++++++++++++++++++++++++",
"+++++++++++++++++++++.....++++++",
"++++++++++++++++++++..    ++++++",
"+++++++++++++++++++.. OOX  +++++",
"+++++++++++++++++++. OXXOo +++++",
"+++++++++++++++++++. XOOXO +++++",
"+++++++++++++++++++. XOoO  +++++",
"++++++++++++++++++..      ++++++",
"+++++++++++++++++.. +    +++++++",
"++++++++++++++++.  +++++++++++++",
"+++++++++++++++.  ++++++++++++++",
"++++++++++++++.  +++++++++++++++",
"++++++++++++.. +++++++++++++++++",
"+++++++++++.  ++++++++++++++++++",
"++++++++++.. +++++++++++++++++++",
"+++++++++. +  ++++++++++++++++++",
"++++++++. +++  +++++++++++++++++",
"+++++++.  ++++ +++++++++++++++++",
"++++++.  . +++++++++++++++++++++",
"++++++.++.. ++++++++++++++++++++",
"++++++. ++.. +++++++++++++++++++",
"+++++++  ++.++++++++++++++++++++",
"++++++++  ++++++++++++++++++++++",
"++++++++++++++++++++++++++++++++",
"++++++++++++++++++++++++++++++++",
"++++++++++++++++++++++++++++++++",
"++++++++++++++++++++++++++++++++",
"++++++++++++++++++++++++++++++++"
};
