/* XPM */
static char *result[] = {
/* columns rows colors chars-per-pixel */
"32 32 9 1 ",
"  c #272736",
". c #323E4F",
"X c #FF9166",
"o c #2B8BEB",
"O c #4DA6FF",
"+ c #82C0FF",
"@ c gray96",
"# c white",
"$ c None",
/* pixels */
"$$$$$$$$$$$$$$$$$$$$$$$$$$$$$$$$",
"$$$$$$$$$$$$$$$$$$$$$$$$$$$$$$$$",
"$$$$$$$$$$$$$$$$$$$$$$$$$$$$$$$$",
"$$$$$$$$$$$$$$$$$$$$$$$$$$$$$$$$",
"$$$$$$$$$$$$$$$$$$$$$$$$$$$$$$$$",
"$$$$$$$$$$$$$$$$$$$$$$$$$$$$$$$$",
"$$$$$$$$$$$$$$$$$$$$$$$$$$$$$$$$",
"$$$$$$$$$$$$$$$$$$$$$$$$$$$$$$$$",
"$$$$$$$$$$$$$$$..$$$$$$$$$$$$$$$",
"$$$$$$$$$$$$$$.oo.$$$$$$$$$$$$$$",
"$$$$$$$$$$$$$$.oo.$$$$$$$$$$$$$$",
"$$$$$$$$$$$$$$.oo.$$$$$$$$$$$$$$",
"$$$$$$$$$$$$$$.Oo.$$$$$$$$$$$$$$",
"$$$$$$$$$$$$$.OOoo.$$$$$$$$$$$$$",
"$$$$$$$$$$$$.OOOOoO.$$$$$$$$$$$$",
"$$$$$$$$$...+++OOOOO...$$$$$$$$$",
"$$$$$$$$.+++OOOOOOOoOOO.$$$$$$$$",
"$$$$$$$.+++OOOOOOOOoooOO.$$$$$$$",
"$$$$$$.+++OOOOOOOOOOoooOO.$$$$$$",
"$$$$$.O++OOOOOOOOOOOOoooOO.$$$$$",
"$$$$$.O+OOOO#OOOOOO#OOooOO.$$$$$",
"$$$$$.OOOOO#@#OOOO#@#OooOO.$$$$$",
"$$$$$.OoOO#@ @#OO#@ @#ooOO.$$$$$",
"$$$$$.OooOO#@#OOOO#@#ooooO.$$$$$",
"$$$$$.OoooXO#OOOOOO#OXoooO.$$$$$",
"$$$$$.OOoooXXOOOOOOXXOooOO.$$$$$",
"$$$$$$.OOooOOXXXXXXOOOOOO.$$$$$$",
"$$$$$$$..OOOOOOOOOOOOOO..$$$$$$$",
"$$$$$$$$$..............$$$$$$$$$",
"$$$$$$$$$$$$$$$$$$$$$$$$$$$$$$$$",
"$$$$$$$$$$$$$$$$$$$$$$$$$$$$$$$$",
"$$$$$$$$$$$$$$$$$$$$$$$$$$$$$$$$"
};
