/* XPM */
static char *result[] = {
/* columns rows colors chars-per-pixel */
"32 32 12 1 ",
"  c #272736",
". c #323E4F",
"X c #473B78",
"o c #4B8826",
"O c #FF9166",
"+ c #8FDE5D",
"@ c #4B5BAB",
"# c #2B8BEB",
"$ c #4DA6FF",
"% c #82C0FF",
"& c gray96",
"* c white",
/* pixels */
"XXXXX%XX@XX@XX@%@%@XXX@@%@@@@XXX",
"XXXX@@++++++++++++++++o+o+%%@XXX",
"XXX%o+++++++++o+o++++++o++++@@XX",
"X%@++++++++++++o+++++++++++++%@X",
"X@++++++++++++++++++++++++++++%X",
"@@+++++++++++++++++++o++++++++@@",
"X++++++++++o+++++++++++++++++++@",
"X++++++++++++++++++++++++o+o+++%",
"X++o+o+++++++++..+++++++++o++++@",
"X+++o+++++++++.##.+++++++++++++X",
"@+++++++++++++.##.+++++++++++++X",
"@++++++++o+o++.##.++o+o++++++++X",
"%+++++++++o+++.$#.+++o+++++++++%",
"@+++++o++++++.$$##.+++++++++o+o@",
"X+++++++++++.$$$$#$.+++++++++o+@",
"%++++++++...%%%$$$$$...++++++++X",
"%+++++++.%%%$$$$$$$#$$$.+++++++X",
"@+o+o++.%%%$$$$$$$$###$$.++++++@",
"@++o++.%%%$$$$$$$$$$###$$.o+o++@",
"X++++.$%%$$$$$$$$$$$$###$$.o+++%",
"%++++.$%$$$$*$$$$$$*$$##$$.++++%",
"X++++.$$$$$*&*$$$$*&*$##$$.+++o@",
"X++++.$#$$*& &*$$*& &*##$$.++++@",
"X++++.$##$$*&*$$$$*&*####$.++++X",
"X++++.$###O$*$$$$$$*$O###$.++++X",
"X++++.$$###OO$$$$$$OO$##$$.++++@",
"Xo+o++.$$##$$OOOOOO$$$$$$.+++o+%",
"@+o++++..$$$$$$$$$$$$$$..+++++o%",
"X@+++++++..............+++++++@@",
"X%@++++++++++++++++++++++++++%@X",
"XX%@+o+o++++o+++++++o+o++++%%@XX",
"XXX@%@@X@X@@@@XXXX@@@XXX@@@@XXXX"
};
