/* XPM */
static char *result[] = {
/* columns rows colors chars-per-pixel */
"32 32 2 1 ",
"  c #473B78",
". c #4DA6FF",
/* pixels */
"   .........        ...        .",
"     .....           ..        .",
"      ...             .        .",
"      ..........      ..       .",
"       ...    ...    ....     ..",
"      ...       ..   ....    ...",
"     ....        .  ......  ....",
".   ....         ..... .........",
" .......          ...   ....... ",
"  ..  ..          ..     ...    ",
" ..    ...        .       ..    ",
" ..      ..      ..       ...   ",
" .        ..    ..         .. ..",
"..        .......          .... ",
"..        ..   ...         ...  ",
"...      ..     ...        ..   ",
" ...    ..       ...      ..    ",
" ....  ...        ...     ..    ",
" .........         .........    ",
"...     ..         ...    ..    ",
"..      ..         ..      ..   ",
".       ...       ..        ..  ",
".       ....     ...        ....",
".       ......  .....        .  ",
"..     ...  .........       ..  ",
"...   ...     .    ...      ....",
" .......      .     ..     .... ",
" .......       .    ..........  ",
".. .....       .      ..  ...   ",
".      ..      .     ...  ..    ",
"       ..     .....  ..    .    ",
"     ..........  .....     ...  "
};
