/* XPM */
static char *result[] = {
/* columns rows colors chars-per-pixel */
"32 32 4 1 ",
"  c #473B78",
". c #4B5BAB",
"X c #4DA6FF",
"o c #82C0FF",
/* pixels */
"...XXoooXXXX.      .XXX.      .X",
"   ..XooXX..        .XX.      .X",
"     .XoX.......     .X.      .X",
"     .XXoXXXXXXX.    .XX.     .X",
"      .XoX....XXX.  .XXoX.   .Xo",
"     .Xoo.    ..XX. .oooX.  .Xoo",
".   .XooX.      .X..XoXooX..XooX",
"X...XooX.       .XXoXX.XooXXooXX",
".XXXXoXX.        .ooX. .XooXXXX.",
" .XX..XX..       .oX.   .Xoo... ",
".XX.  .XXX.      .X.     .XX.   ",
".XX.   ..oX.    .XX.     .XXX...",
".X.      .oX....XX.       .XX.XX",
"XX.      .XXXXXXX.        .XXXX.",
"XX.      .XX...XoX.       .XXX. ",
"XXX.    .XX.   .XoX.      .XX.  ",
".XoX.  .XX.     .XoX.    .XX.   ",
".ooXX..XXo.      .XoX.....Xo.   ",
".oXXXXXXXo.       .XXXXXXXXo.   ",
"XXX.....oo.       .XXX....XX.   ",
"XX.    .oo.       .XX.    .Xo.  ",
"X.     .ooX.     .XX.      .XX..",
"X.     .XoXX..  .XoX.      .XXoX",
"X.     .XXXXXX..XXoXX.      .X..",
"XX.   .XXX..XXXXXoXoX.     .XX..",
"XXX...XXX.  ..X....XoX.    .XoXX",
".XXXXXXX.    .X.   .Xo.....XooX.",
".XXooooX.     .X.  .XoXXXXXoXX. ",
"XX.XXXXX.     .X.   ..XX..ooX.  ",
"X. ....XX.    .X... .XoX..XX.   ",
".    ..XX.....XXXXX..oX.  .X.   ",
"    .XXoooXXXXX..XXXXX.   .XXX.."
};
